<?xml version="1.0" encoding="UTF-8"?>
<svg xmlns="http://www.w3.org/2000/svg" viewBox="0 0 3000 400"><path d="M0.00,400.00 L0.00,111.25 A111.25,111.25 0 0 1 222.50,111.25 L222.50,400.00 Z M252.50,400.00 L252.50,111.25 A111.25,111.25 0 0 1 475.00,111.25 L475.00,400.00 Z M505.00,400.00 L505.00,111.25 A111.25,111.25 0 0 1 727.50,111.25 L727.50,400.00 Z M757.50,400.00 L757.50,111.25 A111.25,111.25 0 0 1 980.00,111.25 L980.00,400.00 Z M1010.00,400.00 L1010.00,111.25 A111.25,111.25 0 0 1 1232.50,111.25 L1232.50,400.00 Z M1262.50,400.00 L1262.50,111.25 A111.25,111.25 0 0 1 1485.00,111.25 L1485.00,400.00 Z M1515.00,400.00 L1515.00,111.25 A111.25,111.25 0 0 1 1737.50,111.25 L1737.50,400.00 Z M1767.50,400.00 L1767.50,111.25 A111.25,111.25 0 0 1 1990.00,111.25 L1990.00,400.00 Z M2020.00,400.00 L2020.00,111.25 A111.25,111.25 0 0 1 2242.50,111.25 L2242.50,400.00 Z M2272.50,400.00 L2272.50,111.25 A111.25,111.25 0 0 1 2495.00,111.25 L2495.00,400.00 Z M2525.00,400.00 L2525.00,111.25 A111.25,111.25 0 0 1 2747.50,111.25 L2747.50,400.00 Z M2777.50,400.00 L2777.50,111.25 A111.25,111.25 0 0 1 3000.00,111.25 L3000.00,400.00 Z" fill="#1A164C"/></svg>